<svg xmlns="http://www.w3.org/2000/svg" viewBox="0 0 64 64" role="img" aria-label="Google G icon">
  <rect width="64" height="64" rx="32" fill="#ffffff"/>
  <path d="M54.5 33.2c0-1.8-.2-3.5-.5-5.2H32v9.7h12.6c-.5 3-2.2 5.6-4.7 7.3v6h7.6c4.5-4.2 7-10.4 7-17.8z" fill="#4285F4"/>
  <path d="M32 56c6.3 0 11.6-2.1 15.4-5.7l-7.6-6c-2.1 1.4-4.8 2.3-7.8 2.3-6 0-11-4-12.8-9.4h-7.8v6.2C15.2 51 22.9 56 32 56z" fill="#34A853"/>
  <path d="M19.2 37.2c-.5-1.4-.8-2.9-.8-4.5s.3-3.1.8-4.5V22h-7.8C9.8 25.2 9 28.8 9 32.7c0 3.9.8 7.5 2.4 10.7l7.8-6.2z" fill="#FBBC05"/>
  <path d="M32 18.1c3.4 0 6.4 1.2 8.8 3.4l6.6-6.6C43.5 11.3 38.3 9 32 9c-9.1 0-16.8 5-20.6 12.3l7.8 6.2c1.8-5.4 6.8-9.4 12.8-9.4z" fill="#EA4335"/>
</svg>
