<svg xmlns="http://www.w3.org/2000/svg" viewBox="0 0 64 64" role="img" aria-label="Probis icon">
  <defs>
    <linearGradient id="bg" x1="0" x2="1" y1="0" y2="1">
      <stop offset="0%" stop-color="#111c28"/>
      <stop offset="100%" stop-color="#060c13"/>
    </linearGradient>
    <linearGradient id="accent" x1="0" x2="1" y1="0" y2="0">
      <stop offset="0%" stop-color="#ffb454"/>
      <stop offset="100%" stop-color="#00c6ff"/>
    </linearGradient>
  </defs>
  <rect width="64" height="64" rx="12" fill="url(#bg)"/>
  <rect x="12" y="14" width="40" height="4" rx="2" fill="#324557"/>
  <path d="M16 42V22h14c6 0 10 3 10 9 0 7-5 11-12 11h-5v8h-7v-8zm7-6h5c3.7 0 5.2-1.6 5.2-4.6 0-2.7-1.7-4.4-5.1-4.4H23V36z" fill="url(#accent)"/>
  <circle cx="46" cy="45" r="6" fill="#0b1723" stroke="#36516b" stroke-width="2"/>
  <path d="M46 41v8M42 45h8" stroke="#7ecfff" stroke-width="1.8" stroke-linecap="round"/>
</svg>
